<svg xmlns="http://www.w3.org/2000/svg" viewBox="0 0 59.88 99.03"><defs><style>.cls-1,.cls-2{fill:#fff;}.cls-2{opacity:0.2;}</style></defs><title>Asset 6</title><g id="Layer_2" data-name="Layer 2"><g id="OBJECTS"><path class="cls-1" d="M44.79,43.2a9.26,9.26,0,0,0-9.26,9.26A9.27,9.27,0,1,0,18.9,58.09c1.7,2.21,16.63,17.65,16.63,17.65S50.45,60.3,52.15,58.09A9.27,9.27,0,0,0,44.79,43.2Z"/><path class="cls-2" d="M14.86,81.63a5,5,0,0,0-4.95,5,5,5,0,1,0-9.91,0,4.89,4.89,0,0,0,1,3C1.92,90.78,9.91,99,9.91,99s8-8.25,8.89-9.44a5,5,0,0,0-3.94-8Z"/><path class="cls-2" d="M38.72,22.18a3.57,3.57,0,0,0-3.57,3.58,3.58,3.58,0,1,0-6.42,2.17c.66.85,6.42,6.81,6.42,6.81s5.76-6,6.41-6.81a3.58,3.58,0,0,0-2.84-5.75Z"/><path class="cls-2" d="M57.91,0a2,2,0,0,0-2,2A2,2,0,1,0,52,2a2,2,0,0,0,.4,1.2c.36.47,3.54,3.75,3.54,3.75s3.18-3.28,3.54-3.75a2,2,0,0,0,.4-1.2A2,2,0,0,0,57.91,0Z"/></g></g></svg>