<svg xmlns="http://www.w3.org/2000/svg" viewBox="0 0 144.09 253.77"><defs><style>.cls-1{isolation:isolate;}.cls-2,.cls-5,.cls-7{fill:none;stroke-miterlimit:10;}.cls-2,.cls-7{stroke:#c0a0fa;stroke-width:1.46px;}.cls-2,.cls-3{opacity:0.3;mix-blend-mode:multiply;}.cls-4{fill:#4d26c6;}.cls-5{stroke:#ceb4ff;stroke-width:1.57px;}.cls-6{fill:#7c51e5;}</style></defs><title>Asset 4</title><g class="cls-1"><g id="Layer_2" data-name="Layer 2"><g id="BACKGROUND"><line class="cls-2" y1="253.04" x2="125.44" y2="253.04"/><g class="cls-3"><path class="cls-4" d="M63.07,47.44c0-9.43,4.06-19.18,10.54-22.62a26,26,0,0,0,11.25-11C89.28,5.2,94.9,0,101,0c11,0,20.41,16.8,24.07,40.41a27.44,27.44,0,0,0,8.39,16.09c6.43,5.89,10.6,15.37,10.6,26.06,0,15.76-9.36,29.68-22.12,32a24.91,24.91,0,0,0-12,6.2,13.38,13.38,0,0,1-8.92,3.87c-11.39,0-21-18-24.43-42.82a27.82,27.82,0,0,0-7-15C65.64,62.45,63.07,55.4,63.07,47.44Z"/><line class="cls-5" x1="102.89" y1="38.19" x2="102.89" y2="250.21"/><polyline class="cls-5" points="125.44 86.09 102.89 114.95 90.17 100.52"/><polyline class="cls-5" points="82.38 50.17 102.89 73.12 110.52 67.23"/></g><g class="cls-3"><path class="cls-6" d="M65.91,84a7.84,7.84,0,0,0-3.67-.86,8.23,8.23,0,0,1-8.37-7.64c-.95-17.26-7.39-31.83-16-31.83-6.28,0-11.73,8.08-14.39,19.88a8.06,8.06,0,0,1-9.16,6.16A9.27,9.27,0,0,0,7.39,71c-9.95,7,.42,34.65,17.79,50.8A8.06,8.06,0,0,1,27.73,129c-1.57,9.36-.08,16.75,4.66,19.23,7.9,4.12,21.8-6.92,31.05-24.66S73.81,88.14,65.91,84Z"/><line class="cls-7" x1="37.9" y1="82.58" x2="37.9" y2="253.11"/><line class="cls-7" x1="56.91" y1="105.92" x2="37.9" y2="136.8"/><line class="cls-7" x1="17.11" y1="84.53" x2="37.9" y2="116.13"/></g></g></g></g></svg>