<svg xmlns="http://www.w3.org/2000/svg" width="2383" height="1517">
  <path fill-rule="evenodd" fill="#ffffff" opacity=".3" d="M417 1491c-10.493 0-19-8.507-19-19s8.507-19 19-19 19 8.507 19 19-8.507 19-19 19zm0-31.531c-6.921 0-12.531 5.61-12.531 12.531s5.61 12.531 12.531 12.531 12.531-5.61 12.531-12.531-5.61-12.531-12.531-12.531zM1261.5 1280c-6.904 0-12.5-5.596-12.5-12.5s5.596-12.5 12.5-12.5 12.5 5.596 12.5 12.5-5.596 12.5-12.5 12.5zm0-20.75a8.25 8.25 0 1 0 0 16.5 8.25 8.25 0 0 0 0-16.5zM2122.5 561c-12.979 0-23.5-10.521-23.5-23.5s10.521-23.5 23.5-23.5 23.5 10.521 23.5 23.5-10.521 23.5-23.5 23.5zm0-39c-8.56 0-15.5 6.94-15.5 15.5 0 8.56 6.94 15.5 15.5 15.5 8.56 0 15.5-6.94 15.5-15.5 0-8.56-6.94-15.5-15.5-15.5zM120 615c-7.18 0-13-5.82-13-13s5.82-13 13-13 13 5.82 13 13-5.82 13-13 13zm0-21.563a8.563 8.563 0 1 0 0 17.127 8.563 8.563 0 0 0 0-17.127zM20 1100.005L-.004 1080 20 1059.995 40.005 1080 20 1100.005zM6.219 1080L20 1093.781 33.781 1080 20 1066.219 6.219 1080zM1096.5 41.004l-20.505-20.505L1096.5-.005l20.505 20.504-20.505 20.505zm-14.126-20.505l14.126 14.126 14.126-14.126L1096.5 6.375l-14.126 14.124zM1042 322.385l-18.385-18.384L1042 285.615l18.385 18.386L1042 322.385zm-12.665-18.384L1042 316.665l12.665-12.664L1042 291.335l-12.665 12.666zM2010 1517v-26h26v26h-26zm21.969-21.969h-17.938v17.938h17.938v-17.938zM343.314 353.071l-4.243 4.243-7.071-7.071-7.071 7.071-4.243-4.243 7.071-7.071-7.071-7.071 4.243-4.242 7.071 7.071 7.071-7.071 4.243 4.242-7.072 7.071 7.072 7.071zM2382.314 1300.071l-4.243 4.243-7.071-7.072-7.071 7.072-4.243-4.243 7.072-7.071-7.072-7.071 4.243-4.242 7.071 7.071 7.071-7.071 4.243 4.242-7.072 7.071 7.072 7.071zM738.864 307.743l-2.121 2.121-4.243-4.243-4.243 4.243-2.121-2.121 4.243-4.243-4.243-4.243 2.121-2.121 4.243 4.243 4.243-4.243 2.121 2.121-4.243 4.243 4.243 4.243zM2295.864 987.743l-2.121 2.121-4.243-4.243-4.243 4.243-2.121-2.121 4.243-4.243-4.243-4.243 2.121-2.121 4.243 4.243 4.243-4.243 2.121 2.121-4.243 4.243 4.243 4.243z"/>
</svg>
