<svg xmlns="http://www.w3.org/2000/svg" width="859" height="662"><defs><linearGradient id="a" x1="0%" x2="60.182%" y1="0%" y2="79.864%"><stop offset="0%" stop-color="#3E1BBD"/><stop offset="100%" stop-color="#A061FF"/></linearGradient></defs><path fill-rule="evenodd" opacity=".58" fill="#FFF" d="M561.848 602.508a342.54 342.54 0 0 1-15.076-.331c-44.439-1.958-88.314 9.223-127.681 29.928-35.928 18.896-78.791 29.873-124.818 29.873-126.77 0-229.537-83.255-229.537-185.955 0-.237 0-.475.002-.712.121-26.111 19.949-48.131 45.881-51.243a30.93 30.93 0 0 0 1.512-.219c12.76-2.144 22.924-12.577 24.787-25.377.419-2.882.434-5.701.091-8.407-3.971-31.374 13.949-61.747 42.597-75.16a250.473 250.473 0 0 1 10.161-4.484c46.65-19.357 85.305-53.477 112.316-96.145 15.407-24.336 35.108-46.283 58.203-65.044 37.045-30.096 87.752-34.231 131.091-14.231a50.486 50.486 0 0 0 21.211 4.638c13.637 0 25.978-5.376 35.071-14.073 34.073-32.592 84.605-41.784 128.857-25.491 107.174 39.459 182.468 132.56 182.468 241.13 0 144.314-133.032 261.303-297.136 261.303zm76.272-452.681c-12.218 2.003-22.072 11.855-24.076 24.07-3.309 20.17 13.887 37.36 34.062 34.052 12.219-2.003 22.073-11.855 24.078-24.069 3.31-20.172-13.887-37.363-34.064-34.053zm29.213-96.507c-14.732 0-26.674-11.938-26.674-26.666S652.601-.013 667.333-.013s26.674 11.939 26.674 26.667c0 14.728-11.942 26.666-26.674 26.666zM92.967 192.828c-9.112 0-16.499-7.384-16.499-16.494 0-9.109 7.387-16.493 16.499-16.493 9.112 0 16.499 7.384 16.499 16.493 0 9.11-7.387 16.494-16.499 16.494zM45.343 320.869c-25.045 0-45.349-20.297-45.349-45.336 0-25.038 20.304-45.334 45.349-45.334 25.045 0 45.349 20.296 45.349 45.334 0 25.039-20.304 45.336-45.349 45.336z"/><path fill="url(#a)" d="M561.848 602.508a342.54 342.54 0 0 1-15.076-.331c-44.439-1.958-88.314 9.223-127.681 29.928-35.928 18.896-78.791 29.873-124.818 29.873-126.77 0-229.537-83.255-229.537-185.955 0-.237 0-.475.002-.712.121-26.111 19.949-48.131 45.881-51.243a30.93 30.93 0 0 0 1.512-.219c12.76-2.144 22.924-12.577 24.787-25.377.419-2.882.434-5.701.091-8.407-3.971-31.374 13.949-61.747 42.597-75.16a250.473 250.473 0 0 1 10.161-4.484c46.65-19.357 85.305-53.477 112.316-96.145 15.407-24.336 35.108-46.283 58.203-65.044 37.045-30.096 87.752-34.231 131.091-14.231a50.486 50.486 0 0 0 21.211 4.638c13.637 0 25.978-5.376 35.071-14.073 34.073-32.592 84.605-41.784 128.857-25.491 107.174 39.459 182.468 132.56 182.468 241.13 0 144.314-133.032 261.303-297.136 261.303zm76.272-452.681c-12.218 2.003-22.072 11.855-24.076 24.07-3.309 20.17 13.887 37.36 34.062 34.052 12.219-2.003 22.073-11.855 24.078-24.069 3.31-20.172-13.887-37.363-34.064-34.053zm29.213-96.507c-14.732 0-26.674-11.938-26.674-26.666S652.601-.013 667.333-.013s26.674 11.939 26.674 26.667c0 14.728-11.942 26.666-26.674 26.666zM92.967 192.828c-9.112 0-16.499-7.384-16.499-16.494 0-9.109 7.387-16.493 16.499-16.493 9.112 0 16.499 7.384 16.499 16.493 0 9.11-7.387 16.494-16.499 16.494zM45.343 320.869c-25.045 0-45.349-20.297-45.349-45.336 0-25.038 20.304-45.334 45.349-45.334 25.045 0 45.349 20.296 45.349 45.334 0 25.039-20.304 45.336-45.349 45.336z"/></svg>