<svg xmlns="http://www.w3.org/2000/svg" width="859" height="662"><defs><linearGradient id="a" x1="0%" x2="60.182%" y1="0%" y2="79.864%"><stop offset="0%" stop-color="#FF8E7F"/><stop offset="100%" stop-color="#F43D9B"/></linearGradient></defs><path fill-rule="evenodd" opacity=".478" fill="#FFF" d="M561.848 602.509c-5.056 0-10.082-.112-15.076-.332-44.439-1.958-88.314 9.223-127.681 29.929-35.928 18.895-78.791 29.872-124.818 29.872-126.77 0-229.537-83.254-229.537-185.955 0-.237 0-.474.002-.711.122-26.111 19.949-48.132 45.881-51.244a32.184 32.184 0 0 0 1.512-.218c12.76-2.144 22.924-12.577 24.787-25.379.419-2.882.434-5.7.091-8.406-3.971-31.373 13.949-61.747 42.597-75.16a250.46 250.46 0 0 1 10.161-4.483c46.65-19.358 85.305-53.478 112.316-96.145 15.408-24.338 35.109-46.283 58.203-65.046 37.045-30.095 87.752-34.231 131.091-14.23a50.486 50.486 0 0 0 21.211 4.638c13.637 0 25.978-5.375 35.071-14.073 34.073-32.592 84.605-41.783 128.857-25.492 107.174 39.459 182.468 132.561 182.468 241.131 0 144.314-133.032 261.304-297.136 261.304zm76.272-452.683c-12.218 2.004-22.072 11.856-24.076 24.07-3.309 20.171 13.887 37.361 34.062 34.054 12.219-2.004 22.073-11.855 24.078-24.07 3.31-20.171-13.887-37.363-34.064-34.054zm29.213-96.506c-14.732 0-26.674-11.939-26.674-26.666 0-14.728 11.942-26.667 26.674-26.667s26.674 11.939 26.674 26.667c0 14.727-11.942 26.666-26.674 26.666zM92.967 192.829c-9.112 0-16.499-7.384-16.499-16.494 0-9.109 7.387-16.493 16.499-16.493 9.112 0 16.499 7.384 16.499 16.493 0 9.11-7.387 16.494-16.499 16.494zM45.343 320.87c-25.045 0-45.349-20.298-45.349-45.336 0-25.039 20.304-45.336 45.349-45.336 25.045 0 45.349 20.297 45.349 45.336 0 25.038-20.304 45.336-45.349 45.336z"/><path fill="url(#a)" d="M561.848 602.509c-5.056 0-10.082-.112-15.076-.332-44.439-1.958-88.314 9.223-127.681 29.929-35.928 18.895-78.791 29.872-124.818 29.872-126.77 0-229.537-83.254-229.537-185.955 0-.237 0-.474.002-.711.122-26.111 19.949-48.132 45.881-51.244a32.184 32.184 0 0 0 1.512-.218c12.76-2.144 22.924-12.577 24.787-25.379.419-2.882.434-5.7.091-8.406-3.971-31.373 13.949-61.747 42.597-75.16a250.46 250.46 0 0 1 10.161-4.483c46.65-19.358 85.305-53.478 112.316-96.145 15.408-24.338 35.109-46.283 58.203-65.046 37.045-30.095 87.752-34.231 131.091-14.23a50.486 50.486 0 0 0 21.211 4.638c13.637 0 25.978-5.375 35.071-14.073 34.073-32.592 84.605-41.783 128.857-25.492 107.174 39.459 182.468 132.561 182.468 241.131 0 144.314-133.032 261.304-297.136 261.304zm76.272-452.683c-12.218 2.004-22.072 11.856-24.076 24.07-3.309 20.171 13.887 37.361 34.062 34.054 12.219-2.004 22.073-11.855 24.078-24.07 3.31-20.171-13.887-37.363-34.064-34.054zm29.213-96.506c-14.732 0-26.674-11.939-26.674-26.666 0-14.728 11.942-26.667 26.674-26.667s26.674 11.939 26.674 26.667c0 14.727-11.942 26.666-26.674 26.666zM92.967 192.829c-9.112 0-16.499-7.384-16.499-16.494 0-9.109 7.387-16.493 16.499-16.493 9.112 0 16.499 7.384 16.499 16.493 0 9.11-7.387 16.494-16.499 16.494zM45.343 320.87c-25.045 0-45.349-20.298-45.349-45.336 0-25.039 20.304-45.336 45.349-45.336 25.045 0 45.349 20.297 45.349 45.336 0 25.038-20.304 45.336-45.349 45.336z"/></svg>