<svg xmlns="http://www.w3.org/2000/svg" width="799" height="707"><defs><linearGradient id="a" x1="0%" x2="60.182%" y1="0%" y2="79.864%"><stop offset="0%" stop-color="#FF8E7F" stop-opacity=".4"/><stop offset="100%" stop-color="#F43D9B" stop-opacity=".4"/></linearGradient></defs><path fill-rule="evenodd" opacity=".541" fill="#F58D92" d="M309.328 120.312c-33.872-29.92-43.443-88.529-82.39-110.558-36.689-20.753-88.132-5.558-118.654 19.033-33.738 27.182-54.012 67.81-67.721 108.978-52.41 157.388-80.424 569.075 86.047 569.22 119.292.102 226.864-.947 336.7 0 102.975.886 176.664-36.591 248.302-110.757 71.638-74.164 105.75-186.119 77.443-285.419-28.307-99.301-122.858-178.724-225.835-179.425-43.706-.297-86.379 12.413-129.809 17.333-43.429 4.92-91.281.57-124.083-28.405z"/><path fill="url(#a)" d="M309.328 120.312c-33.872-29.92-43.443-88.529-82.39-110.558-36.689-20.753-88.132-5.558-118.654 19.033-33.738 27.182-54.012 67.81-67.721 108.978-52.41 157.388-80.424 569.075 86.047 569.22 119.292.102 226.864-.947 336.7 0 102.975.886 176.664-36.591 248.302-110.757 71.638-74.164 105.75-186.119 77.443-285.419-28.307-99.301-122.858-178.724-225.835-179.425-43.706-.297-86.379 12.413-129.809 17.333-43.429 4.92-91.281.57-124.083-28.405z"/></svg>