<svg xmlns="http://www.w3.org/2000/svg" width="51" height="61"><path fill-rule="evenodd" fill="#FFF" d="M25.5 61l-.969-.431c-.249-.111-6.164-2.772-12.137-7.874C8.841 49.661 6 46.383 3.95 42.954 1.329 38.571 0 33.941 0 29.189V14.808a7.153 7.153 0 0 1 5.905-7.041c5.778-1.035 11.098-4.191 13.756-5.98A10.42 10.42 0 0 1 25.5 0c2.084 0 4.103.618 5.839 1.786 2.658 1.79 7.978 4.946 13.756 5.981A7.153 7.153 0 0 1 51 14.808v14.381c0 4.752-1.329 9.382-3.95 13.765-2.05 3.429-4.891 6.707-8.444 9.741-5.973 5.102-11.888 7.763-12.137 7.874L25.5 61zm0-56.233a5.677 5.677 0 0 0-3.178.974c-2.968 1.998-8.939 5.529-15.576 6.719a2.39 2.39 0 0 0-1.98 2.348v14.381c0 15.051 16.517 24.409 20.734 26.553 1.835-.932 5.999-3.227 10.1-6.749 7.056-6.058 10.633-12.721 10.633-19.804V14.808a2.39 2.39 0 0 0-1.979-2.348c-6.637-1.19-12.608-4.721-15.576-6.719a5.677 5.677 0 0 0-3.178-.974zm15.243 16.238l-3.557-3.173-15.377 17.247-8.145-7.627-3.258 3.479 11.71 10.966 18.627-20.892z"/></svg>