<svg xmlns="http://www.w3.org/2000/svg" width="1505" height="1464">
  <defs>
    <linearGradient id="a" x1="0%" x2="60.182%" y1="0%" y2="79.864%">
      <stop offset="0%" stop-color="#F43D9B"/>
      <stop offset="100%" stop-color="#FF8E7F"/>
    </linearGradient>
  </defs>
  <path fill-rule="evenodd" fill="#F58D92" d="M1208.494 63.228C900.531-124.19 517.056 131.491 559.618 483.049c39.585 335.376-102.956 428.488-316.546 454.482-250.958 30.54-351.306 419.138-87.472 510.449 111.494 38.586 220.776.248 326.094-38.92 150.731-56.058 316.267-71.367 474.523-43.881 68.176 11.84 134.903 31.424 203.414 41.175 113.061 16.09 248.417.752 313.211-105.905 61.403-101.077 34.093-237.241-75.189-303.801-101.65-60.479-162.105-148.029-44.014-346.865 120.313-202.406 55.879-464.217-145.145-586.555z"/>
  <path fill="url(#a)" d="M1208.494 63.228C900.531-124.19 517.056 131.491 559.618 483.049c39.585 335.376-102.956 428.488-316.546 454.482-250.958 30.54-351.306 419.138-87.472 510.449 111.494 38.586 220.776.248 326.094-38.92 150.731-56.058 316.267-71.367 474.523-43.881 68.176 11.84 134.903 31.424 203.414 41.175 113.061 16.09 248.417.752 313.211-105.905 61.403-101.077 34.093-237.241-75.189-303.801-101.65-60.479-162.105-148.029-44.014-346.865 120.313-202.406 55.879-464.217-145.145-586.555z"/>
</svg>
