<svg xmlns="http://www.w3.org/2000/svg" width="1583" height="1401"><defs><linearGradient id="a" x1="0%" x2="95.106%" y1="30.902%" y2="0%"><stop offset="0%" stop-color="#FF8E7F"/><stop offset="100%" stop-color="#FF579A"/></linearGradient></defs><path fill-rule="evenodd" opacity=".522" fill="#F58D92" d="M612.963 238.246c-67.099-59.25-86.06-175.309-163.214-218.931-72.68-41.095-174.588-11.007-235.051 37.689-66.835 53.829-106.999 134.28-134.156 215.804C-23.282 584.475-78.778 1399.716 251 1399.999c236.316.204 449.417-1.872 667 0 203.994 1.756 349.971-72.458 491.885-219.322 141.915-146.864 209.49-368.563 153.415-565.201-56.076-196.64-243.382-353.916-447.378-355.305-86.581-.587-171.117 24.583-257.15 34.325-86.032 9.742-180.827 1.128-245.809-56.25z"/><path fill="url(#a)" d="M612.963 238.246c-67.099-59.25-86.06-175.309-163.214-218.931-72.68-41.095-174.588-11.007-235.051 37.689-66.835 53.829-106.999 134.28-134.156 215.804C-23.282 584.475-78.778 1399.716 251 1399.999c236.316.204 449.417-1.872 667 0 203.994 1.756 349.971-72.458 491.885-219.322 141.915-146.864 209.49-368.563 153.415-565.201-56.076-196.64-243.382-353.916-447.378-355.305-86.581-.587-171.117 24.583-257.15 34.325-86.032 9.742-180.827 1.128-245.809-56.25z"/></svg>