<svg xmlns="http://www.w3.org/2000/svg" width="1528" height="1394"><defs><linearGradient id="a" x1="0%" x2="95.106%" y1="30.902%" y2="0%"><stop offset="0%" stop-color="#FF8E7F"/><stop offset="100%" stop-color="#FF579A"/></linearGradient></defs><path fill-rule="evenodd" fill="#F58D92" d="M113.78 1267.406c238.703 249.268 656.513 107.445 703.814-228.127 46.065-319.874 200.894-370.809 404.905-342.156 239.703 33.667 428.349-300.901 206.776-450.415-93.635-63.183-204.19-54.69-311.282-44.454-153.269 14.654-310.189-12.027-449.823-76.48-60.154-27.765-117.058-62.335-178.036-88.251C389.502-5.245 260.497-24.453 174.256 58.187c-81.728 78.315-90.032 210.957-5.341 299.46 79.13 80.997 113.475 176.864-44.8 331.591-161.211 157.477-166.15 415.458-10.335 578.168z"/><path fill="url(#a)" d="M113.78 1267.406c238.703 249.268 656.513 107.445 703.814-228.127 46.065-319.874 200.894-370.809 404.905-342.156 239.703 33.667 428.349-300.901 206.776-450.415-93.635-63.183-204.19-54.69-311.282-44.454-153.269 14.654-310.189-12.027-449.823-76.48-60.154-27.765-117.058-62.335-178.036-88.251C389.502-5.245 260.497-24.453 174.256 58.187c-81.728 78.315-90.032 210.957-5.341 299.46 79.13 80.997 113.475 176.864-44.8 331.591-161.211 157.477-166.15 415.458-10.335 578.168z"/></svg>